<?xml version="1.0" encoding="UTF-8"?>
<svg version="1.1" xmlns="http://www.w3.org/2000/svg" width="1024" height="1024">
<path d="M0 0 C337.92 0 675.84 0 1024 0 C1024 337.92 1024 675.84 1024 1024 C686.08 1024 348.16 1024 0 1024 C0 686.08 0 348.16 0 0 Z " fill="#2C5169" transform="translate(0,0)"/>
<path d="M0 0 C6.06012826 -0.00216792 12.12025443 -0.00544838 18.1803816 -0.0096699 C28.59776267 -0.01683886 39.01512456 -0.01817641 49.43250686 -0.01304901 C52.80752894 -0.0115235 56.18253896 -0.01205881 59.55756027 -0.01472747 C75.92198075 -0.02612746 92.27321748 0.08389518 108.63172179 0.55157197 C109.6566658 0.57908874 109.6566658 0.57908874 110.70231575 0.6071614 C128.62475463 1.10244142 145.42632726 3.92548866 162.56555969 9.12139618 C163.46145812 9.39048798 164.35735656 9.65957978 165.28040344 9.93682587 C180.43614931 14.58760087 193.94859329 21.04213387 207.56555969 29.12139618 C208.6754425 29.77237275 209.78532531 30.42334931 210.92884094 31.09405243 C222.87690928 38.40813769 233.48250738 47.45192536 243.56555969 57.12139618 C244.36244201 57.87743134 244.36244201 57.87743134 245.17542297 58.64873993 C253.47103035 66.55260346 260.80878415 74.86871411 267.56555969 84.12139618 C268.19325256 84.96661835 268.19325256 84.96661835 268.83362609 85.82891572 C284.93051117 107.72896966 295.2254472 134.60185453 300.56555969 161.12139618 C300.74216125 161.96573212 300.91876281 162.81006806 301.10071594 163.67998993 C302.80490892 172.63058333 303.70130939 181.61339435 304.1197589 190.70391572 C304.16186933 191.61153719 304.20397975 192.51915867 304.24736625 193.45428383 C304.70033355 204.06869167 304.71037026 214.67884255 304.69837219 225.30108368 C304.69904853 227.4547398 304.70002128 229.60839584 304.70127136 231.7620517 C304.70273092 236.23437979 304.70064932 240.70668767 304.69593078 245.17901337 C304.69021365 250.87052167 304.69353617 256.561983 304.69950324 262.25348961 C304.70313852 266.68563921 304.70195706 271.11777789 304.69937545 275.54992783 C304.69871545 277.64759177 304.69950159 279.74525675 304.701855 281.84291947 C304.74163948 327.21490874 304.74163948 327.21490874 290.25305969 343.18389618 C282.19888827 350.91252475 270.75619038 356.87329181 259.56555969 358.12139618 C258.77020812 358.22838837 257.97485656 358.33538056 257.15540344 358.44561493 C213.41051598 363.65172982 162.30125421 346.98107336 120.56555969 335.12139618 C120.91924621 335.84633271 121.27293273 336.57126923 121.63733703 337.31817353 C126.27881246 348.2244172 126.33130001 358.72153533 126.21741515 370.45342743 C126.19055019 373.74755991 126.21730101 377.03830295 126.24915344 380.33233368 C126.27202947 393.62877725 126.07386739 404.49227878 116.56555969 414.68389618 C109.45888089 421.12139618 109.45888089 421.12139618 104.56555969 421.12139618 C104.57000091 422.108098 104.57444213 423.09479981 104.57901794 424.11140168 C104.61961711 433.42452603 104.64956957 442.73763236 104.66918403 452.05082524 C104.6796071 456.83846528 104.69373934 461.62603369 104.71643859 466.41363251 C104.73821961 471.03666045 104.75013942 475.65961963 104.75531417 480.28269494 C104.75900049 482.04367828 104.76619892 483.804658 104.7770198 485.56561196 C104.79160466 488.03814592 104.79353471 490.51039818 104.79261047 492.98296845 C104.79980102 493.7058606 104.80699157 494.42875275 104.81440002 495.17355072 C104.77373347 505.27248458 100.83291758 514.94516816 94.00305969 522.37139618 C82.60803334 533.01249829 69.35858519 534.42304302 54.5237506 534.38882172 C52.98684567 534.39256125 51.44994264 534.39716397 49.9130426 534.40255237 C45.7014758 534.41476039 41.48998856 534.4145245 37.27840811 534.41216362 C32.73157039 534.41175489 28.18475799 534.42279988 23.63793212 534.43227875 C14.7341883 534.44887763 5.83047096 534.45438779 -3.07328704 534.45550351 C-10.31222337 534.4564545 -17.55115097 534.46056736 -24.79008454 534.46690476 C-45.32293392 534.48451407 -65.85576241 534.49374411 -86.38861939 534.49224381 C-87.49509284 534.4921639 -88.60156628 534.49208399 -89.74156922 534.49200165 C-90.84939679 534.49191989 -91.95722437 534.49183813 -93.09862247 534.49175389 C-111.05082038 534.49094106 -129.00293438 534.5100788 -146.95510802 534.53827839 C-165.39722759 534.56701854 -183.83930625 534.58081806 -202.28144878 534.57909083 C-212.63170941 534.57842733 -222.98188207 534.58390238 -233.3321225 534.60544693 C-242.14474122 534.62367358 -250.95723207 534.62799385 -259.76986149 534.61442809 C-264.26353453 534.60790598 -268.75696237 534.60775384 -273.25061196 534.62513459 C-277.37011187 534.64090389 -281.48917294 534.63796261 -285.6086624 534.62056632 C-287.09315114 534.61750489 -288.57767295 534.62109633 -290.06212267 534.63228647 C-303.47259924 534.7266243 -315.26256418 532.39575384 -325.43444031 523.12139618 C-332.92632767 514.20180954 -337.69249404 504.66252364 -337.67494935 492.86372101 C-337.6766582 492.16761969 -337.67836705 491.47151837 -337.68012768 490.75432307 C-337.68340094 488.44045681 -337.672455 486.12688575 -337.6614911 483.81304657 C-337.66092651 482.14701067 -337.66124446 480.48097428 -337.66237611 478.81493866 C-337.66294878 474.30512255 -337.65120826 469.79541332 -337.63722819 465.285622 C-337.62470663 460.56775389 -337.62354921 455.8498832 -337.62117738 451.13200104 C-337.6149668 442.20384524 -337.59856168 433.27573854 -337.5784784 424.34760433 C-337.55610626 414.18077413 -337.54512266 404.01394156 -337.53508753 393.84709287 C-337.51419509 372.93849992 -337.47902731 352.02995115 -337.43444031 331.12139618 C-338.53858592 331.37093993 -339.64273152 331.62048367 -340.78033608 331.87758934 C-341.51619195 332.04389627 -342.25204782 332.21020319 -343.01020235 332.38154972 C-344.67282203 332.75731423 -346.33543982 333.1330871 -347.99805588 333.50886762 C-352.60531467 334.55017588 -357.21260759 335.59133278 -361.81996316 336.63221276 C-373.29953465 339.22549843 -373.29953465 339.22549843 -384.77690858 341.82848847 C-490.06251832 365.75114888 -490.06251832 365.75114888 -515.99303406 349.51983368 C-527.43642272 341.06754999 -535.72393848 328.90904984 -537.9792859 314.68520844 C-538.63347822 309.12336512 -538.59798834 303.56117281 -538.61144227 297.96758759 C-538.61801347 296.76947953 -538.62458466 295.57137146 -538.63135499 294.3369571 C-538.65101537 290.3822973 -538.66275806 286.42765096 -538.67272156 282.47295868 C-538.67677697 281.09786059 -538.6808941 279.72276268 -538.68507165 278.34766495 C-538.70410883 271.86993121 -538.71833191 265.39220861 -538.72668362 258.91445231 C-538.73639143 251.51212957 -538.76254568 244.11011101 -538.80318451 236.70789504 C-538.83371857 230.94176788 -538.84818786 225.17572587 -538.85146463 219.40951967 C-538.85377704 215.98812101 -538.86221905 212.56704738 -538.8879258 209.14573777 C-539.03053302 187.09036344 -537.99058451 164.83706985 -530.49694031 143.87139618 C-530.14631531 142.83893769 -529.79569031 141.80647919 -529.43444031 140.74273407 C-528.7514474 138.74148292 -528.05954199 136.74324082 -527.3568036 134.74883759 C-526.57082778 132.50990912 -525.81819893 130.26526465 -525.08678406 128.00811493 C-522.05414477 118.93075733 -517.84284196 110.58786293 -513.43444031 102.12139618 C-512.76439385 100.78975811 -512.09567594 99.45743124 -511.43444031 98.12139618 C-510.77444031 98.12139618 -510.11444031 98.12139618 -509.43444031 98.12139618 C-509.17404969 97.40854462 -508.91365906 96.69569306 -508.64537781 95.96123993 C-506.52621822 90.99146889 -503.38225131 86.63214052 -500.43444031 82.12139618 C-500.01291688 81.44592743 -499.59139344 80.77045868 -499.15709656 80.07452118 C-498.30331294 78.72135469 -497.37759194 77.41386322 -496.43444031 76.12139618 C-495.77444031 76.12139618 -495.11444031 76.12139618 -494.43444031 76.12139618 C-494.19523865 75.3946872 -493.95603699 74.66797822 -493.7095868 73.91924775 C-492.24353844 70.7025305 -490.53278252 68.84713092 -488.03209656 66.35577118 C-487.14070985 65.465029 -486.24932313 64.57428681 -485.33092469 63.65655243 C-484.39570985 62.73745087 -483.460495 61.81834931 -482.49694031 60.87139618 C-481.59653016 59.96776337 -480.69612 59.06413056 -479.76842469 58.13311493 C-473.63517512 52.04802079 -467.23870573 46.44449381 -460.43444031 41.12139618 C-459.71135682 40.54357392 -458.98827332 39.96575165 -458.24327821 39.37041962 C-456.43444031 38.12139618 -456.43444031 38.12139618 -454.43444031 38.12139618 C-454.43444031 37.46139618 -454.43444031 36.80139618 -454.43444031 36.12139618 C-452.06485349 34.55061347 -449.7066056 33.10020577 -447.24694031 31.68389618 C-446.57340516 31.28879853 -445.89987 30.89370087 -445.20592469 30.48663056 C-443.88615762 29.71279641 -442.56345121 28.94395051 -441.23766297 28.18047822 C-439.69745579 27.27587237 -438.1924782 26.31172901 -436.69615906 25.33623993 C-434.43444031 24.12139618 -434.43444031 24.12139618 -430.43444031 24.12139618 C-430.43444031 23.46139618 -430.43444031 22.80139618 -430.43444031 22.12139618 C-429.36194031 21.66764618 -428.28944031 21.21389618 -427.18444031 20.74639618 C-425.14015595 19.87850081 -423.20094296 18.99464048 -421.24694031 17.93389618 C-419.43444031 17.12139618 -419.43444031 17.12139618 -415.43444031 17.12139618 C-415.43444031 16.46139618 -415.43444031 15.80139618 -415.43444031 15.12139618 C-411.60280358 13.82465929 -407.76884154 12.53493334 -403.93444031 11.24639618 C-402.85678406 10.8815915 -401.77912781 10.51678681 -400.66881531 10.14092743 C-392.48448511 7.39618255 -384.66172303 5.14853442 -376.05944031 4.12139618 C-371.89787654 3.62236498 -367.88354792 3.01300077 -363.79290265 2.10364449 C-358.72000497 1.08225588 -353.88503476 0.83109516 -348.72248048 0.84292328 C-347.79537345 0.83713053 -346.86826643 0.83133777 -345.91306525 0.82536948 C-342.82420694 0.80845774 -339.73549931 0.80549699 -336.64659852 0.80254853 C-334.4094533 0.79323608 -332.17231151 0.78307046 -329.93517369 0.77212441 C-323.82220963 0.7447399 -317.70926875 0.72963238 -311.5962593 0.71670449 C-305.7258192 0.70245683 -299.85541969 0.67914631 -293.9850083 0.65617052 C-281.36286438 0.60717373 -268.74070627 0.56959316 -256.11851019 0.53710619 C-245.14943471 0.5088605 -234.18037949 0.47666441 -223.2113263 0.44079316 C-220.27686696 0.43123187 -217.34240759 0.42168248 -214.4079482 0.41213906 C-213.68047831 0.40977245 -212.95300842 0.40740585 -212.20349399 0.40496752 C-141.4692716 0.17549388 -70.73459456 0.02519962 0 0 Z " fill="#519793" transform="translate(629.4344403147697,88.87860381603241)"/>
<path d="M0 0 C337.92 0 675.84 0 1024 0 C1024 337.92 1024 675.84 1024 1024 C686.08 1024 348.16 1024 0 1024 C0 686.08 0 348.16 0 0 Z M242 75 C241.28028507 75.16399331 240.56057014 75.32798663 239.81904566 75.49694943 C236.02369959 76.37401499 232.29221129 77.37724155 228.5625 78.5 C227.56669922 78.78230469 226.57089844 79.06460938 225.54492188 79.35546875 C194.1900709 88.44323539 164.2291455 105.79374803 140.73046875 128.38671875 C138.4203129 130.59772628 136.06751155 132.68898549 133.625 134.75 C118.91813183 147.49816096 107.50630755 165.20108113 98 182 C97.58878906 182.72606445 97.17757812 183.45212891 96.75390625 184.20019531 C81.76684661 210.95425146 70.79553739 243.52601049 70.86857224 274.49176788 C70.8665196 275.31266956 70.86446697 276.13357123 70.86235213 276.97934872 C70.85670783 279.72391866 70.85813621 282.468438 70.85955811 285.2130127 C70.85697296 287.20334127 70.85395939 289.19366933 70.8505547 291.18399668 C70.84249837 296.64935304 70.84069589 302.11469626 70.83995724 307.58005786 C70.8381042 313.47682213 70.83055539 319.37357962 70.82382202 325.27033997 C70.80953791 338.83811626 70.80371228 352.40589153 70.79913008 365.97367378 C70.7967912 372.68653093 70.79318813 379.39938723 70.7894347 386.11224372 C70.77659823 409.11549535 70.76588127 432.11874651 70.7624321 455.12200165 C70.76221047 456.56540872 70.76198869 458.00881579 70.76176675 459.45222285 C70.76154611 460.89902482 70.76132563 462.34582679 70.7611053 463.79262877 C70.76066276 466.69492308 70.76021564 469.5972174 70.75976562 472.49951172 C70.75965623 473.21910912 70.75954684 473.93870652 70.75943414 474.6801099 C70.75580825 497.98228274 70.73990643 521.28442438 70.71657526 544.58658529 C70.69192343 569.25314376 70.67825669 593.91968442 70.67706418 618.58625555 C70.67689274 621.29956405 70.67667732 624.01287254 70.67642975 626.72618103 C70.67637398 627.39421886 70.67631821 628.06225669 70.67626075 628.75053808 C70.67518542 638.79603144 70.6658604 648.84149451 70.65224457 658.88697815 C70.63678513 670.33280751 70.63175726 681.77858344 70.63998267 693.22442126 C70.64386914 699.05620773 70.64305849 704.8878868 70.62892532 710.71965981 C70.56725068 737.72684389 70.66389075 763.84186166 77.375 790.1875 C77.6534375 791.35345703 77.931875 792.51941406 78.21875 793.72070312 C86.19532606 826.00427786 104.34927242 860.23678123 128.46801758 883.46801758 C130 885 130 885 132.4375 888 C135.05318878 891.06226979 137.80475969 893.57276652 140.8671875 896.171875 C142.23104107 897.34089235 143.57251348 898.53687986 144.8828125 899.765625 C157.70096595 911.72923489 172.49871791 920.96255569 188 929 C188.70431152 929.36996094 189.40862305 929.73992188 190.13427734 930.12109375 C232.69354749 952.4069636 278.1044447 954.31558671 325.1082654 954.27610838 C330.67349759 954.27361812 336.23871372 954.28268348 341.80393982 954.29014587 C352.67718061 954.3028309 363.55039663 954.30469441 374.42364357 954.30234561 C383.26918339 954.30055558 392.11471574 954.3023267 400.96025467 954.30657005 C402.85558937 954.30746284 402.85558937 954.30746284 404.78921366 954.30837366 C407.3568981 954.30958552 409.92458253 954.31079966 412.49226697 954.31201603 C429.70558651 954.31979065 446.91890248 954.32373122 464.13222313 954.31969929 C465.13929918 954.31946472 465.13929918 954.31946472 466.16672019 954.31922542 C469.56862824 954.31841978 472.97053628 954.31757401 476.37244432 954.31671212 C477.04792987 954.31654103 477.72341543 954.31636994 478.41937025 954.31619367 C479.78536064 954.31584701 481.15135103 954.31549848 482.51734142 954.31514808 C503.76873882 954.30979178 525.02009471 954.31772517 546.27148438 954.33618164 C570.21335493 954.356951 594.15519628 954.36758406 618.09707892 954.36360615 C630.7496745 954.36170004 643.40223228 954.36412406 656.05482101 954.37832069 C666.82430183 954.3902833 677.59372154 954.39158486 688.36320327 954.37953053 C693.84687151 954.37367639 699.33042827 954.37244545 704.81408882 954.38453293 C736.52221829 954.49118088 736.52221829 954.49118088 768 951 C768.96236029 950.84107887 769.92472059 950.68215774 770.91624331 950.51842082 C782.6090422 948.56790353 793.81656699 945.93597258 805 942 C805.63679687 941.78118164 806.27359375 941.56236328 806.9296875 941.33691406 C830.28125157 933.25999255 851.87161556 921.66821808 871 906 C871.51836426 905.58314941 872.03672852 905.16629883 872.57080078 904.73681641 C886.7034832 893.35685923 899.28198896 880.64924443 910 866 C911.11568359 864.50146484 911.11568359 864.50146484 912.25390625 862.97265625 C925.19704851 844.98192005 936.27001807 824.73507691 942.28686523 803.33081055 C943 801 943 801 943.99633789 798.59375 C946.01728423 793.37104654 946.86949916 787.78311668 948 782.3125 C948.26039063 781.10271484 948.52078125 779.89292969 948.7890625 778.64648438 C952.23729566 762.05839302 953.29802055 745.74271339 953.26069641 728.83000183 C953.26372438 726.85777735 953.26761706 724.88555404 953.27228898 722.91333276 C953.28249453 717.54457108 953.28040633 712.17587673 953.27610838 706.80710971 C953.27362754 700.99714699 953.28267206 695.18719992 953.29014587 689.37724304 C953.30285709 678.01470052 953.30469106 666.65218167 953.30234561 655.28963324 C953.30055837 646.04872593 953.30232078 636.80782578 953.30657005 627.56691933 C953.30716524 626.24879865 953.30776043 624.93067798 953.30837366 623.57261426 C953.30928099 621.56584895 953.31018966 619.55908365 953.31110601 617.55231836 C953.31952543 598.91464791 953.32387819 580.27698006 953.31969929 561.63930798 C953.31954291 560.93791865 953.31938654 560.23652932 953.31922542 559.51388576 C953.31841974 555.9596173 953.31757396 552.40534884 953.31671212 548.85108038 C953.31654103 548.14529248 953.31636994 547.43950458 953.31619367 546.71232917 C953.31584701 545.28505801 953.31549848 543.85778685 953.31514808 542.43051569 C953.309792 520.22669201 953.31772226 498.02290806 953.33618164 475.8190918 C953.35693551 450.82657101 953.36761799 425.83407481 953.36360615 400.84154493 C953.36164879 387.6256188 953.36414747 374.4097273 953.37832069 361.1938076 C953.39026447 349.94356292 953.39160579 338.6933767 953.37953053 327.44313117 C953.37366303 321.71088722 953.37248319 315.97875005 953.38453293 310.24651337 C953.39546339 304.98531235 953.39220416 299.72430635 953.37827124 294.46311418 C953.3756439 292.57365455 953.37792803 290.68417928 953.38600711 288.7947351 C953.4560173 271.17986635 951.30229602 254.02115535 947.25 236.875 C946.99686035 235.790979 946.7437207 234.70695801 946.48291016 233.59008789 C940.67272798 209.62705992 930.03172316 184.62966201 915 165 C914.40058594 164.15050781 913.80117188 163.30101562 913.18359375 162.42578125 C899.90343064 143.61892399 883.77226759 126.39603272 865 113 C864.34515625 112.52788086 863.6903125 112.05576172 863.015625 111.56933594 C845.47408398 99.04790698 826.37612077 89.03123052 806 82 C805.34016113 81.76732422 804.68032227 81.53464844 804.00048828 81.29492188 C793.76027524 77.72293203 783.33456755 75.36923994 772.66088468 73.48418486 C770.96537208 73.17566283 769.27367272 72.84475597 767.58838433 72.48454511 C757.7795701 70.54976365 748.03698941 70.71503401 738.08491516 70.73257446 C736.06709711 70.72883371 734.04928051 70.7242305 732.03146619 70.71884382 C726.50865426 70.70665027 720.98590307 70.70687 715.46308076 70.70923257 C709.49751317 70.70964168 703.53196482 70.69859238 697.56640625 70.68911743 C685.88486756 70.67252473 674.203344 70.66698262 662.52179531 70.66589268 C653.01905092 70.66497185 643.51631305 70.6608461 634.01357079 70.65449142 C631.27321902 70.65269617 628.53286724 70.65091654 625.79251546 70.64914167 C625.11114142 70.64869957 624.42976738 70.64825748 623.72774564 70.64780198 C604.56995652 70.63549913 585.41216966 70.62760024 566.25437641 70.62848854 C565.53261468 70.6285197 564.81085294 70.62855086 564.06721964 70.62858296 C560.40948293 70.62874916 556.75174621 70.62894724 553.0940095 70.62915237 C552.00446145 70.62921221 552.00446145 70.62921221 550.89290233 70.62927325 C549.42401275 70.62935413 547.95512316 70.62943772 546.48623358 70.62952404 C523.65900976 70.63074814 500.83184546 70.61576008 478.00463867 70.58837891 C452.32286906 70.55758597 426.64113856 70.54045088 400.95934933 70.54230535 C398.21491094 70.54245459 395.47047256 70.54255202 392.72603416 70.54261398 C392.05035086 70.54263729 391.37466755 70.5426606 390.67850899 70.54268462 C379.85338703 70.5427459 369.02831716 70.53003002 358.20321063 70.51274945 C347.30011895 70.49570593 336.39710617 70.49422655 325.49400858 70.5069681 C319.59925916 70.51346432 313.70469639 70.5137371 307.80996513 70.4962616 C274.68373254 70.17952266 274.68373254 70.17952266 242 75 Z " fill="#F8F8F8" transform="translate(0,0)"/>
<path d="M0 0 C2.47054399 0.97712719 4.92364199 1.96575677 7.34808427 3.05301332 C15.37331496 6.40491242 22.9983554 6.55695473 31.54338074 6.49206543 C33.098102 6.49508094 34.65282066 6.4998626 36.20753175 6.50624418 C40.45436156 6.51869075 44.70081034 6.50650216 48.9476136 6.49016929 C53.53726775 6.47694992 58.12687833 6.48697241 62.71653748 6.49427795 C70.66178923 6.50394148 78.60693116 6.49951373 86.55217552 6.4858551 C98.04824961 6.46646335 109.54420065 6.47294439 121.040278 6.48642892 C139.7051621 6.50799369 158.37001713 6.51472737 177.03491211 6.50927734 C178.15106426 6.50895671 179.26721642 6.50863608 180.41719136 6.50830573 C188.34062773 6.50593232 196.26406386 6.5030275 204.1875 6.5 C213.24373363 6.49654027 222.29996725 6.49332209 231.35620117 6.49072266 C233.0297469 6.49023439 233.0297469 6.49023439 234.73710164 6.48973626 C253.33751029 6.48479484 271.93787856 6.49546655 290.53827459 6.51729441 C302.00672233 6.52999346 313.47500369 6.52854019 324.94344244 6.50884354 C332.79781503 6.49624216 340.65210318 6.49769247 348.50647565 6.51021707 C353.03815429 6.51693295 357.56958647 6.51702593 362.10124207 6.4996357 C366.25063323 6.48381414 370.39959377 6.48638843 374.5489761 6.50348574 C376.04878245 6.50640123 377.54862059 6.50256121 379.04838695 6.49122757 C388.3147122 6.42560842 395.03704562 6.65093022 402.2421875 12.96484375 C402.78101563 13.61582031 403.31984375 14.26679688 403.875 14.9375 C404.42929687 15.58589844 404.98359375 16.23429687 405.5546875 16.90234375 C408.77759523 21.57991524 409.24676357 25.54900183 409.22705078 31.17700195 C409.22734283 31.87998917 409.22763489 32.58297638 409.22793579 33.30726624 C409.22654877 35.61773262 409.2110175 37.92787159 409.1953125 40.23828125 C409.19158013 41.84539107 409.18873422 43.45250317 409.18673706 45.05961609 C409.17911821 49.2797377 409.15948483 53.49972061 409.1373291 57.7197876 C409.11683293 62.02996952 409.10772729 66.34017396 409.09765625 70.65039062 C409.07623721 79.10032391 409.04212248 87.55014468 409 96 C407.8869902 96.00546844 407.8869902 96.00546844 406.75149536 96.01104736 C399.7200231 96.04909202 392.68901187 96.10612914 385.6578846 96.18390274 C382.04404143 96.22322282 378.43043626 96.25548612 374.81640625 96.27099609 C371.32124623 96.28626604 367.82674123 96.32089016 364.33187485 96.36830902 C362.36581176 96.39012024 360.39956329 96.39246481 358.43338013 96.39434814 C348.91335013 96.54815421 340.47660168 98.07456445 333.1875 104.625 C332.50042969 105.21539062 331.81335938 105.80578125 331.10546875 106.4140625 C324.7771847 114.18646332 323.25715979 121.44443788 323.40625 131.2890625 C323.40618958 133.00396378 323.40618958 133.00396378 323.40612793 134.75350952 C323.41145938 137.15539081 323.42893922 139.55727307 323.45800781 141.95898438 C323.4999615 145.62163918 323.49905965 149.28245708 323.4921875 152.9453125 C323.50267834 155.28907519 323.51561587 157.63282848 323.53125 159.9765625 C323.53155212 161.60653671 323.53155212 161.60653671 323.53186035 163.2694397 C323.68359822 173.07468338 325.89395148 179.68177853 332.671875 186.94921875 C338.73488611 192.28995841 345.93204068 195.08974079 353.94018555 195.20532227 C355.16122482 195.22526749 356.3822641 195.24521271 357.64030457 195.26576233 C358.95912125 195.28247482 360.27793793 195.29918732 361.63671875 195.31640625 C363.00007244 195.3369826 364.36341985 195.35797925 365.72676086 195.37937927 C369.31221422 195.4345297 372.89772448 195.48396987 376.48327637 195.53222656 C380.1431992 195.58249299 383.80303957 195.63815219 387.46289062 195.69335938 C394.64185721 195.80085494 401.82089245 195.9023189 409 196 C409.11617769 205.75360422 409.20485868 215.5070421 409.25906086 225.261199 C409.28508381 229.79116303 409.32034694 234.32065144 409.37719727 238.8503418 C409.43177959 243.22703242 409.46147539 247.60326741 409.47438622 251.98027229 C409.48357932 253.64476754 409.50153115 255.30923965 409.52865028 256.97353935 C409.68314855 266.85377194 409.55086558 274.8164003 402.62763977 282.52879333 C394.67332095 289.96429178 385.11207495 289.43257978 374.93127441 289.38768005 C373.39151703 289.39185597 371.85176272 289.3973349 370.3120141 289.40399987 C366.09268516 289.41843919 361.87355181 289.41421452 357.65421224 289.40683305 C353.09926478 289.4021 348.54435955 289.41461237 343.98942566 289.42485046 C335.07096652 289.44204044 326.15257783 289.44287815 317.23410642 289.43763756 C309.98559757 289.43359541 302.73710954 289.43503995 295.48860168 289.44038582 C293.94087762 289.44150845 293.94087762 289.44150845 292.36188641 289.44265376 C290.26574353 289.44418524 288.16960065 289.44572359 286.07345778 289.44726873 C266.41992886 289.46099421 246.76643977 289.45555549 227.11291176 289.44408352 C209.13214197 289.43414858 191.15147504 289.44709625 173.17072111 289.47101771 C154.70601587 289.49539791 136.24135857 289.50501939 117.77663755 289.49836498 C107.41086046 289.49487069 97.04516251 289.49711885 86.67939758 289.51461601 C77.8564103 289.52932437 69.03355791 289.52999117 60.21057332 289.5125451 C55.70929984 289.50402195 51.20826747 289.50191766 46.70700645 289.51719666 C42.58524026 289.53101434 38.4639224 289.52631844 34.34218234 289.50695742 C32.85238452 289.50318815 31.36255104 289.50614611 29.87278491 289.51656907 C20.6223651 289.57667873 13.99125696 289.29561139 6.7578125 283.0703125 C6.21898437 282.42835938 5.68015625 281.78640625 5.125 281.125 C4.57070313 280.48820312 4.01640625 279.85140625 3.4453125 279.1953125 C-0.53606254 273.14792663 -0.27968986 266.96444128 -0.24050903 259.99026489 C-0.24221788 258.87849565 -0.24392673 257.76672642 -0.24568737 256.6212672 C-0.24898245 252.89474414 -0.23797805 249.16840101 -0.22705078 245.44189453 C-0.22648667 242.77108861 -0.22671515 240.10029371 -0.22793579 237.42948914 C-0.22898367 231.67881532 -0.22271723 225.92818695 -0.21146011 220.17752457 C-0.1951949 211.86307461 -0.18999606 203.5486466 -0.18748413 195.23418246 C-0.18310863 181.74399982 -0.16980346 168.25384138 -0.15087891 154.76367188 C-0.13251636 141.660483 -0.11836168 128.55730071 -0.10986328 115.45410156 C-0.10933783 114.6462021 -0.10881239 113.83830264 -0.10827102 113.00592138 C-0.10566091 108.95286192 -0.1031335 104.89980241 -0.10064721 100.84674287 C-0.07991923 67.23114436 -0.04469764 33.61557515 0 0 Z " fill="#2B606F" transform="translate(309,317)"/>
<path d="M0 0 C9.63233226 -0.07030035 19.26455632 -0.12599094 28.89708567 -0.16016847 C31.87878772 -0.17124436 34.86031795 -0.1890771 37.8419404 -0.21344072 C41.8005454 -0.24551091 45.75898175 -0.25391384 49.7177186 -0.25919992 C51.38861551 -0.27794955 51.38861551 -0.27794955 53.09326792 -0.29707795 C64.69757377 -0.26594665 73.17302886 3.17365494 81.78607798 11.06672782 C89.23105026 20.55832595 90.08389187 29.31270308 89.91107798 41.00422782 C89.90205454 42.1650286 89.8930311 43.32582938 89.88373423 44.52180594 C89.86028959 47.3703289 89.82747319 50.2184186 89.78607798 53.06672782 C86.40251767 52.43993714 83.84942181 51.59839974 80.78607798 50.06672782 C78.45762406 49.38321393 76.12456072 48.71510064 73.78607798 48.06672782 C73.7370936 47.05352469 73.68810923 46.04032157 73.63764048 44.99641532 C73.56255233 43.64482871 73.48700717 42.29326744 73.41107798 40.94172782 C73.36467173 39.94399344 73.36467173 39.94399344 73.31732798 38.92610282 C72.95805877 32.81852633 71.72266364 26.86444159 67.78607798 22.06672782 C59.38981147 15.81525657 50.11941947 16.40476094 40.18695688 16.54548758 C38.41398765 16.55212458 36.64100909 16.55657168 34.86802912 16.55901259 C30.05199871 16.57210301 25.23671561 16.61665708 20.42094994 16.66702837 C15.27872664 16.71552223 10.1363805 16.73530751 4.99399424 16.75900382 C-5.89677808 16.81464526 -16.78703267 16.90694163 -27.67746878 17.0076229 C-34.03027331 17.06607423 -40.38312277 17.11599023 -46.73601675 17.16359061 C-72.62345019 17.35927697 -98.50998019 17.61519775 -124.39656377 17.90094548 C-131.77022731 17.98216449 -139.14391791 18.06040263 -146.51763296 18.13679618 C-148.08654236 18.15306526 -148.08654236 18.15306526 -149.6871469 18.16966301 C-153.90016898 18.21331832 -158.11319153 18.25692738 -162.32621479 18.30046886 C-173.63850954 18.41763728 -184.95071972 18.53924146 -196.26281118 18.67472953 C-200.2286101 18.72198805 -204.1944104 18.76912926 -208.16021109 18.81623954 C-209.12824431 18.82781427 -210.09627753 18.839389 -211.0936451 18.85131449 C-223.39817981 18.99712159 -235.70204138 19.10082927 -248.00731993 19.15496463 C-254.11692318 19.18214787 -260.22638357 19.22501301 -266.33586061 19.27241468 C-271.13088929 19.30828862 -275.92536087 19.32362131 -280.72051573 19.32235974 C-283.6292012 19.32671593 -286.53744786 19.3514914 -289.44596481 19.38206285 C-291.39188475 19.39644893 -293.33793951 19.38621292 -295.28387976 19.37490386 C-302.89223043 19.4805671 -308.92284445 20.57001271 -315.21392202 25.06672782 C-318.70651921 28.8531323 -320.48155129 32.38415122 -320.77642202 37.56672782 C-320.45592928 42.3330301 -319.18324179 46.29133233 -316.21392202 50.06672782 C-310.782847 54.4705975 -305.97637691 56.19174778 -298.99334288 56.19142646 C-297.68214668 56.19381741 -296.37095049 56.19620836 -295.02002108 56.19867176 C-293.55610032 56.19629305 -292.09217969 56.19383305 -290.62825918 56.19130057 C-289.07988494 56.19228636 -287.53151094 56.19372311 -285.98313749 56.19557375 C-282.60899608 56.1986387 -279.23487439 56.19852075 -275.86073256 56.19601744 C-270.37096907 56.19196494 -264.88122107 56.1947233 -259.39145803 56.19836539 C-252.45388768 56.2024594 -245.51632079 56.2046951 -238.57874922 56.20478138 C-224.9385596 56.20498401 -211.29840558 56.21743835 -197.65822744 56.23439139 C-195.51135338 56.23699724 -193.36447931 56.23959605 -191.21760523 56.24218792 C-187.96357379 56.2461265 -184.70954235 56.25007301 -181.45551095 56.25404914 C-169.18032125 56.26900232 -156.90513046 56.28262244 -144.62993765 56.29475516 C-142.94640481 56.2964255 -142.94640481 56.2964255 -141.2288612 56.29812959 C-123.05719007 56.31568956 -104.88554122 56.31857479 -86.71386303 56.31690475 C-68.05603233 56.31562477 -49.39828443 56.33338695 -30.74048555 56.36792272 C-19.23419252 56.38855641 -7.72809793 56.39392234 3.77820559 56.37959442 C11.67056952 56.37112145 19.56277951 56.38090327 27.45511095 56.40490392 C32.00561514 56.41818374 36.55574987 56.42344684 41.10625124 56.40678328 C45.27915007 56.39167206 49.4513549 56.39986921 53.62419356 56.42595282 C55.12701101 56.43133995 56.62988809 56.42844566 58.13266395 56.41603586 C72.35065442 56.30732383 83.99005825 59.75239489 94.42670298 69.61750907 C102.01403021 77.6455144 104.93649174 87.53612998 104.86444712 98.34797782 C104.85833545 99.82779481 104.85240824 101.30761257 104.84664011 102.78743094 C104.83963178 103.95544242 104.83963178 103.95544242 104.83248186 105.14705008 C104.81323788 109.28696302 104.8285158 113.42680134 104.83881235 117.56672782 C104.8510709 122.8274581 104.85262499 128.08737292 104.8102479 133.34797782 C104.77684479 137.60771045 104.78227464 141.86583786 104.81381655 146.12556571 C104.81873997 147.74586546 104.8094617 149.36627393 104.78560686 150.98640555 C104.28672832 159.6082118 104.28672832 159.6082118 107.5539155 167.12436026 C109.60132002 168.40430165 111.52873283 169.23506402 113.78607798 170.06672782 C119.6982482 175.49755321 124.3816992 182.12717902 124.93997812 190.32722586 C124.95283854 191.1526287 124.96569895 191.97803153 124.97894907 192.82844657 C125.00304346 194.2414202 125.00304346 194.2414202 125.02762461 195.68293875 C125.07248635 200.00340403 125.11317695 204.32372002 125.13617563 208.64436454 C125.15267374 210.911722 125.1798815 213.17902879 125.21820688 215.44612235 C125.68108535 243.00550401 125.68108535 243.00550401 115.78607798 253.62922782 C108.67939918 260.06672782 108.67939918 260.06672782 103.78607798 260.06672782 C103.7905192 261.05342963 103.79496042 262.04013144 103.79953623 263.05673331 C103.8401354 272.36985767 103.87008786 281.68296399 103.88970232 290.99615687 C103.90012539 295.78379691 103.91425763 300.57136532 103.93695688 305.35896415 C103.9587379 309.98199209 103.97065771 314.60495126 103.97583246 319.22802657 C103.97951878 320.98900991 103.98671721 322.74998963 103.99753809 324.51094359 C104.01212295 326.98347755 104.01405301 329.45572981 104.01312876 331.92830008 C104.02031931 332.65119223 104.02750986 333.37408438 104.03491831 334.11888236 C103.99425176 344.21781621 100.05343587 353.8904998 93.22357798 361.31672782 C81.82855163 371.95782993 68.57910348 373.36837465 53.74426889 373.33415335 C52.20736396 373.33789288 50.67046093 373.34249561 49.1335609 373.347884 C44.92199409 373.36009202 40.71050685 373.35985613 36.4989264 373.35749525 C31.95208868 373.35708653 27.40527628 373.36813151 22.85845041 373.37761039 C13.95470659 373.39420926 5.05098925 373.39971943 -3.85276875 373.40083514 C-11.09170508 373.40178613 -18.33063268 373.40589899 -25.56956625 373.41223639 C-46.10241563 373.4298457 -66.63524412 373.43907574 -87.1681011 373.43757544 C-88.27457455 373.43749553 -89.38104799 373.43741562 -90.52105093 373.43733329 C-91.6288785 373.43725152 -92.73670608 373.43716976 -93.87810418 373.43708552 C-111.83030209 373.43627269 -129.78241609 373.45541044 -147.73458973 373.48361002 C-166.1767093 373.51235017 -184.61878796 373.52614969 -203.06093049 373.52442247 C-213.41119112 373.52375896 -223.76136378 373.52923402 -234.11160421 373.55077857 C-242.92422293 373.56900522 -251.73671378 373.57332548 -260.5493432 373.55975972 C-265.04301624 373.55323761 -269.53644408 373.55308547 -274.03009367 373.57046622 C-278.14959357 373.58623552 -282.26865465 373.58329425 -286.38814411 373.56589796 C-287.87263285 373.56283652 -289.35715466 373.56642796 -290.84160438 373.57761811 C-304.25208095 373.67195594 -316.04204589 371.34108547 -326.21392202 362.06672782 C-332.90974655 354.09490654 -337.3280655 346.14877765 -337.3481431 335.61962622 C-337.35260094 334.53188525 -337.35705879 333.44414427 -337.36165172 332.32344145 C-337.36146736 331.13405981 -337.36128299 329.94467818 -337.36109304 328.71925467 C-337.36660808 326.81739445 -337.36660808 326.81739445 -337.37223452 324.87711281 C-337.38223256 321.35989402 -337.38596776 317.8426923 -337.38862383 314.32546133 C-337.3925333 310.53119658 -337.40211103 306.73694527 -337.4108367 302.94268912 C-337.4305807 293.78188158 -337.44066369 284.62107297 -337.44956449 275.46024948 C-337.45394988 271.14489365 -337.45931595 266.82953904 -337.46455336 262.51418418 C-337.48156189 248.16755413 -337.49605656 233.82092484 -337.5033021 219.47428626 C-337.50521194 215.75298422 -337.50713228 212.03168218 -337.50908804 208.31038016 C-337.50957178 207.38548727 -337.51005552 206.46059438 -337.51055392 205.50767443 C-337.5188562 190.5213926 -337.54419813 175.53519054 -337.57666872 160.54894355 C-337.60974174 145.15910131 -337.62775099 129.76929962 -337.63094634 114.37942165 C-337.63311097 105.74003209 -337.64185301 97.10075893 -337.66740751 88.46140403 C-337.68911764 81.10485364 -337.69716332 73.74844795 -337.68744073 66.39186916 C-337.68289721 62.63981259 -337.68478507 58.88805455 -337.70420218 55.13603896 C-337.72509046 51.06452801 -337.71484513 46.99367861 -337.70166922 42.92213553 C-337.71263846 41.74167678 -337.72360771 40.56121804 -337.73490936 39.34498781 C-337.6802421 32.34874078 -336.66321301 27.17562231 -333.21392202 21.06672782 C-332.63642202 20.03547782 -332.05892202 19.00422782 -331.46392202 17.94172782 C-325.66736104 10.535011 -318.5365503 5.11682514 -309.21392202 3.06672782 C-301.02554663 2.09668956 -292.72536155 2.29940565 -284.4932189 2.28767508 C-282.03785342 2.26623839 -279.58250674 2.24254231 -277.12718344 2.21672267 C-272.02054525 2.16696752 -266.91409935 2.13120539 -261.8072753 2.10733527 C-254.64496754 2.07291667 -247.48347876 2.00214864 -240.32158804 1.91923636 C-227.38216447 1.77337477 -214.44260368 1.66354088 -201.50276899 1.56147569 C-195.67419444 1.51509008 -189.84563906 1.46642398 -184.01708132 1.41797937 C-171.7514039 1.31615848 -159.48570175 1.2176474 -147.21998745 1.12038488 C-136.88802702 1.03837623 -126.55609471 0.95338027 -116.22417593 0.86628836 C-83.8914774 0.59409463 -51.55872048 0.34096477 -19.22553682 0.13238651 C-12.81700273 0.09094707 -6.40849649 0.04688368 0 0 Z M-321.21392202 67.06672782 C-321.30550779 101.43730764 -321.37597609 135.80785958 -321.41818334 170.1785351 C-321.42318608 174.23770175 -321.42836338 178.29686816 -321.43364859 182.35603446 C-321.43469783 183.16413027 -321.43574707 183.97222608 -321.43682811 184.80480964 C-321.45422615 197.88378323 -321.48576052 210.96268639 -321.52253321 224.04161822 C-321.55995937 237.46507459 -321.58216142 250.88849411 -321.590276 264.31200051 C-321.59576031 272.5928685 -321.61307249 280.87353739 -321.64558789 289.15434409 C-321.66675647 294.83532772 -321.67311678 300.51620865 -321.66792753 306.19722884 C-321.66536935 309.47335517 -321.67144607 312.74906145 -321.69074392 316.02514189 C-321.71067012 319.58244735 -321.70585054 323.1389037 -321.69494009 326.69622916 C-321.70659146 327.72446057 -321.71824282 328.75269199 -321.73024726 329.81208193 C-321.66797082 337.33386353 -320.16426463 343.55329795 -315.24907827 349.40657157 C-314.27261343 350.19741141 -314.27261343 350.19741141 -313.27642202 351.00422782 C-312.30382437 351.82213797 -312.30382437 351.82213797 -311.31157827 352.65657157 C-306.87549962 355.6387399 -303.10593092 356.31735824 -297.80133677 356.32399672 C-295.84669456 356.33367006 -295.84669456 356.33367006 -293.85256463 356.34353882 C-292.40818211 356.34059659 -290.96379997 356.33746116 -289.51941824 356.33415335 C-287.98367708 356.33788975 -286.44793782 356.34249122 -284.91220158 356.347884 C-280.68999566 356.36013107 -276.46786886 356.35985152 -272.24564922 356.35749525 C-267.69266194 356.35708751 -263.13970018 356.36812225 -258.58672476 356.37761039 C-249.66519328 356.39423135 -240.74368824 356.39972045 -231.82214258 356.40083514 C-224.56976872 356.40178522 -217.31740358 356.40589349 -210.06503248 356.41223639 C-189.50432733 356.42985277 -168.94364307 356.43907479 -148.38293032 356.43757544 C-146.71988767 356.43745558 -146.71988767 356.43745558 -145.0232482 356.43733329 C-143.9131995 356.43725152 -142.8031508 356.43716976 -141.65946426 356.43708552 C-123.67339192 356.43627279 -105.68740336 356.45540619 -87.70135526 356.48361002 C-69.23448005 356.51233932 -50.7676457 356.52615025 -32.30074757 356.52442247 C-21.93262091 356.52375852 -11.56458204 356.5292527 -1.19647551 356.55077857 C7.63237608 356.56899108 16.46110008 356.5733372 25.28996231 356.55975972 C29.79349283 356.55323008 34.29677859 356.55311264 38.80028582 356.57046622 C42.92658567 356.5862025 47.05244682 356.58332777 51.17873601 356.56589796 C52.66798942 356.56282924 54.15727562 356.56645565 55.64649036 356.57761811 C64.56310067 356.64000287 73.71131643 356.65538853 80.68908805 350.34600312 C85.89895493 344.72944355 88.24674248 339.08121066 88.12665415 331.40901297 C88.12731127 330.29579169 88.12731127 330.29579169 88.12798166 329.16008109 C88.12590393 326.72504296 88.10262186 324.29070706 88.07904673 321.85579032 C88.07344714 320.16043078 88.06917875 318.46506637 88.06618357 316.76970023 C88.05476332 312.32100487 88.02532065 307.87260625 87.99207163 303.42402762 C87.96130974 298.87918726 87.94766518 294.33429867 87.93256235 289.78938407 C87.90044806 280.88170206 87.84928604 271.97423967 87.78607798 263.06672782 C87.04407145 263.06308219 86.30206491 263.05943656 85.53757334 263.05568045 C78.50610108 263.0176358 71.47508985 262.96059868 64.44396257 262.88282508 C60.8301194 262.843505 57.21651424 262.8112417 53.60248423 262.79573172 C50.1073242 262.78046177 46.61281921 262.74583766 43.11795282 262.6984188 C41.15188974 262.67660758 39.18564127 262.674263 37.2194581 262.67237967 C25.91262409 262.48970591 17.95115096 259.9848271 9.70014048 252.15657157 C4.70099153 246.69831711 2.69767072 241.23695791 2.59320688 233.90608329 C2.57714396 232.87756247 2.56108103 231.84904166 2.54453135 230.78935355 C2.49980099 226.08299204 2.45900272 221.37676821 2.43598032 216.67024344 C2.41944986 214.1952127 2.3921988 211.72022912 2.35394907 209.24543875 C2.29890303 205.66218098 2.27726113 202.08004022 2.26264048 198.49641532 C2.2399711 197.40126609 2.21730173 196.30611686 2.19394541 195.17778128 C2.21737869 186.5656771 4.43416578 180.18354763 9.89154673 173.48079032 C10.57861704 172.89039969 11.26568735 172.30000907 11.97357798 171.69172782 C12.98484751 170.78293875 12.98484751 170.78293875 14.01654673 169.85579032 C22.7377003 164.22209732 30.88545618 163.46714306 41.10639048 163.45735282 C42.45975296 163.44233881 43.81309735 163.42560501 45.16641855 163.40724295 C48.69429059 163.3639171 52.22191568 163.34364876 55.7500062 163.3285076 C59.36373908 163.30880951 62.97721004 163.26685479 66.59076548 163.22688407 C73.65576913 163.15196014 80.72075277 163.10144121 87.78607798 163.06672782 C87.87898913 153.81732725 87.94994954 144.56808874 87.99332666 135.31832236 C88.01415151 131.02270061 88.04237493 126.72739947 88.08783579 122.43196219 C88.13147696 118.28222641 88.15525343 114.13279791 88.16558695 109.98285025 C88.17294571 108.40407591 88.18731549 106.82531731 88.2089982 105.24667472 C88.33370383 95.7862113 88.40487487 88.33748213 81.82123423 80.82454032 C81.17025766 80.28571219 80.5192811 79.74688407 79.84857798 79.19172782 C79.20017954 78.63743094 78.5517811 78.08313407 77.88373423 77.51204032 C73.45625891 74.46145211 69.66316104 73.81695005 64.33502054 73.81898135 C62.3674782 73.81240835 62.3674782 73.81240835 60.36018753 73.80570257 C58.90608106 73.81093394 57.45197521 73.81633953 55.99786997 73.82190055 C54.45189372 73.82047815 52.90591808 73.8181654 51.35994434 73.8150382 C47.10931399 73.80893234 42.85877693 73.81518475 38.60815334 73.82334882 C34.02444238 73.82993313 29.44074337 73.82493008 24.85703135 73.82112235 C16.9117156 73.81589696 8.96642425 73.81739627 1.0211091 73.82289809 C-11.54272852 73.83111048 -24.10651354 73.81988339 -36.67034292 73.80569571 C-40.9696058 73.80109444 -45.26886882 73.7966441 -49.56813192 73.79225749 C-50.64261218 73.79115935 -51.71709244 73.7900612 -52.82413271 73.78892979 C-65.05659949 73.77675417 -77.28906796 73.76920353 -89.52153921 73.76326102 C-91.19888963 73.76243893 -91.19888963 73.76243893 -92.91012591 73.76160023 C-111.02023775 73.75314601 -129.13033471 73.75647641 -147.24044663 73.76241537 C-165.83957434 73.7680366 -184.43862726 73.75447899 -203.03773212 73.72486258 C-214.50578096 73.70733681 -225.97361339 73.7056704 -237.44166118 73.72450773 C-245.30643287 73.73613063 -253.17105882 73.72963771 -261.0358116 73.70903852 C-265.57013415 73.69774002 -270.10408086 73.69449381 -274.6383872 73.7132141 C-278.79639412 73.73022134 -282.95371469 73.72390973 -287.11167997 73.69971553 C-288.60905811 73.69501814 -290.10649242 73.69861365 -291.60382038 73.71174099 C-301.42492944 73.79183431 -309.22421438 72.13963977 -318.21392202 68.06672782 C-319.20392202 67.73672782 -320.19392202 67.40672782 -321.21392202 67.06672782 Z " fill="#F9FBFB" transform="translate(630.2139220237732,249.93327218294144)"/>
<path d="M0 0 C5 2 5 2 7.34808427 3.05301332 C15.37331496 6.40491242 22.9983554 6.55695473 31.54338074 6.49206543 C33.098102 6.49508094 34.65282066 6.4998626 36.20753175 6.50624418 C40.45436156 6.51869075 44.70081034 6.50650216 48.9476136 6.49016929 C53.53726775 6.47694992 58.12687833 6.48697241 62.71653748 6.49427795 C70.66178923 6.50394148 78.60693116 6.49951373 86.55217552 6.4858551 C98.04824961 6.46646335 109.54420065 6.47294439 121.040278 6.48642892 C139.7051621 6.50799369 158.37001713 6.51472737 177.03491211 6.50927734 C178.15106426 6.50895671 179.26721642 6.50863608 180.41719136 6.50830573 C188.34062773 6.50593232 196.26406386 6.5030275 204.1875 6.5 C213.24373363 6.49654027 222.29996725 6.49332209 231.35620117 6.49072266 C233.0297469 6.49023439 233.0297469 6.49023439 234.73710164 6.48973626 C253.33751029 6.48479484 271.93787856 6.49546655 290.53827459 6.51729441 C302.00672233 6.52999346 313.47500369 6.52854019 324.94344244 6.50884354 C332.79781503 6.49624216 340.65210318 6.49769247 348.50647565 6.51021707 C353.03815429 6.51693295 357.56958647 6.51702593 362.10124207 6.4996357 C366.25063323 6.48381414 370.39959377 6.48638843 374.5489761 6.50348574 C376.04878245 6.50640123 377.54862059 6.50256121 379.04838695 6.49122757 C388.3147122 6.42560842 395.03704562 6.65093022 402.2421875 12.96484375 C402.78101563 13.61582031 403.31984375 14.26679688 403.875 14.9375 C404.42929687 15.58589844 404.98359375 16.23429687 405.5546875 16.90234375 C408.77759523 21.57991524 409.24676357 25.54900183 409.22705078 31.17700195 C409.22734283 31.87998917 409.22763489 32.58297638 409.22793579 33.30726624 C409.22654877 35.61773262 409.2110175 37.92787159 409.1953125 40.23828125 C409.19158013 41.84539107 409.18873422 43.45250317 409.18673706 45.05961609 C409.17911821 49.2797377 409.15948483 53.49972061 409.1373291 57.7197876 C409.11683293 62.02996952 409.10772729 66.34017396 409.09765625 70.65039062 C409.07623721 79.10032391 409.04212248 87.55014468 409 96 C406.32156093 96.02383188 403.64333877 96.04108333 400.96484375 96.0546875 C400.21634155 96.06201904 399.46783936 96.06935059 398.69665527 96.0769043 C390.09776998 96.10953764 381.86023672 94.78990168 373.44189453 93.07763672 C368.13712146 92.01432535 362.81781095 91.05518153 357.48828125 90.125 C356.51698776 89.95500488 355.54569427 89.78500977 354.54496765 89.60986328 C352.50218285 89.25290577 350.45927839 88.89663244 348.41625977 88.54101562 C345.33750964 88.00435942 342.25957258 87.46320127 339.18164062 86.921875 C319.47745608 83.47247956 300.01122528 81.35942454 280.0625 79.9375 C277.6646849 79.76276241 275.26689819 79.5876347 272.86914062 79.41210938 C267.20618039 78.99906503 261.5424403 78.5984251 255.87817383 78.20373535 C253.43758755 78.03097521 250.99806531 77.84879548 248.55859375 77.66113281 C237.00000182 76.8274664 225.45849468 76.84612581 213.875 76.875 C212.80873383 76.87621857 211.74246765 76.87743713 210.64389038 76.87869263 C183.07736029 76.91541479 155.53004883 77.54616596 128 79 C128 81.64 128 84.28 128 87 C129.670625 86.9071875 129.670625 86.9071875 131.375 86.8125 C141.15501426 86.86397376 149.54972609 91.51351437 158 96 C157.39363716 99.78806451 156.28838544 102.82895704 154.5625 106.25 C154.13066406 107.12140625 153.69882812 107.9928125 153.25390625 108.890625 C152 111 152 111 150 112 C147.96638518 111.16054272 145.97150204 110.22645148 144 109.25 C138.26893009 106.41201827 133.35534603 104.90660381 127 103 C127.33 114.88 127.66 126.76 128 139 C134.21662287 141.70338712 134.21662287 141.70338712 140.44335938 144.38330078 C148.19587929 147.81327043 155.27802185 151.56733782 159.4375 159.25 C159.91058594 160.10078125 160.38367188 160.9515625 160.87109375 161.828125 C164.83636912 169.45682087 164.28342815 180.42962418 161.9765625 188.64453125 C157.31742703 198.67068189 149.86988757 204.80961284 139.796875 209.03515625 C135.57141298 210.49282262 131.41190127 211.29665342 127 212 C127 217.61 127 223.22 127 229 C123.04 229 119.08 229 115 229 C115 223.39 115 217.78 115 212 C113.80375 212.0825 112.6075 212.165 111.375 212.25 C99.40318005 212.231117 88.33582235 207.1574638 79 200 C80.64566523 194.31497465 83.29032784 189.23318364 86 184 C89.54340898 185.31307177 92.57429201 186.89819732 95.75 188.9375 C102.35983237 192.97028463 108.38041544 194.73006924 116 196 C116 182.8 116 169.6 116 156 C114.02 155.67 112.04 155.34 110 155 C100.67080196 151.62848525 90.58211391 146.64137268 85.7421875 137.66796875 C81.5614731 128.61949946 80.2280655 118.87233255 83.125 109.125 C86.4849609 100.74065313 92.06941254 95.18776896 100 91 C104.87178173 88.94195359 109.74771376 87.67337003 115 87 C115 85.02 115 83.04 115 81 C113.783125 81.17015625 112.56625 81.3403125 111.3125 81.515625 C102.49357903 82.73785437 93.67197931 83.92755864 84.8359375 85.01953125 C84.13688293 85.10602936 83.43782837 85.19252747 82.71759033 85.28164673 C79.25230006 85.7096171 75.78660109 86.13390581 72.3203125 86.55371094 C63.01408657 87.69613359 53.70199692 88.86418123 44.5625 91 C41.19939197 91.77838719 37.85551071 92.33001036 34.4375 92.8125 C26.59966582 93.96155078 18.8794533 95.65289161 11.13842773 97.32348633 C9.62744507 97.64675903 9.62744507 97.64675903 8.0859375 97.9765625 C6.7254126 98.27167725 6.7254126 98.27167725 5.33740234 98.57275391 C3 99 3 99 0 99 C0 66.33 0 33.66 0 0 Z " fill="#528E90" transform="translate(309,317)"/>
<path d="M0 0 C3.63 0 7.26 0 11 0 C11 5.28 11 10.56 11 16 C12.27875 15.938125 13.5575 15.87625 14.875 15.8125 C24.9234087 15.85952843 33.29461682 20.37806976 42 25 C41.39363716 28.78806451 40.28838544 31.82895704 38.5625 35.25 C38.13066406 36.12140625 37.69882812 36.9928125 37.25390625 37.890625 C36 40 36 40 34 41 C31.96638518 40.16054272 29.97150204 39.22645148 28 38.25 C22.26893009 35.41201827 17.35534603 33.90660381 11 32 C11.495 49.82 11.495 49.82 12 68 C18.21662287 70.70338712 18.21662287 70.70338712 24.44335938 73.38330078 C32.19587929 76.81327043 39.27802185 80.56733782 43.4375 88.25 C43.91058594 89.10078125 44.38367188 89.9515625 44.87109375 90.828125 C48.83636912 98.45682087 48.28342815 109.42962418 45.9765625 117.64453125 C41.31742703 127.67068189 33.86988757 133.80961284 23.796875 138.03515625 C19.57141298 139.49282262 15.41190127 140.29665342 11 141 C11 146.61 11 152.22 11 158 C7.04 158 3.08 158 -1 158 C-1 152.39 -1 146.78 -1 141 C-2.19625 141.0825 -3.3925 141.165 -4.625 141.25 C-16.59681995 141.231117 -27.66417765 136.1574638 -37 129 C-35.35433477 123.31497465 -32.70967216 118.23318364 -30 113 C-26.45659102 114.31307177 -23.42570799 115.89819732 -20.25 117.9375 C-13.64016763 121.97028463 -7.61958456 123.73006924 0 125 C0 111.8 0 98.6 0 85 C-2.97 84.505 -2.97 84.505 -6 84 C-15.32919804 80.62848525 -25.41788609 75.64137268 -30.2578125 66.66796875 C-34.4385269 57.61949946 -35.7719345 47.87233255 -32.875 38.125 C-29.20356074 28.96339925 -22.69021671 22.86883665 -13.66796875 19 C-9.02534133 17.35491226 -4.99743519 16.71391931 0 16 C0 10.72 0 5.44 0 0 Z " fill="#F9FBFA" transform="translate(425,388)"/>
<path d="M0 0 C1.04002419 -0.01270432 1.04002419 -0.01270432 2.10105896 -0.02566528 C4.38274708 -0.04897807 6.66375865 -0.05005891 8.94555664 -0.04882812 C10.53829719 -0.05593298 12.1310352 -0.06363246 13.72377014 -0.07189941 C17.0584322 -0.08533088 20.39285756 -0.08691897 23.72753906 -0.08105469 C27.99267304 -0.07515842 32.25666875 -0.10575196 36.5215826 -0.14617157 C39.80996274 -0.17206965 43.0980695 -0.17492416 46.38653755 -0.17127991 C47.95857162 -0.17296907 49.53061858 -0.1825921 51.10255241 -0.20042419 C53.30481199 -0.22265928 55.50477691 -0.21289314 57.70703125 -0.1953125 C59.58303261 -0.19839417 59.58303261 -0.19839417 61.49693298 -0.20153809 C66.08806992 0.63242109 67.65433062 2.11058143 70.91821289 5.41992188 C72.89091646 8.35263588 73.17933568 10.66841658 73.22460938 14.16918945 C73.24059677 15.10728958 73.25658417 16.04538971 73.27305603 17.01191711 C73.27841873 18.019254 73.28378143 19.02659088 73.28930664 20.06445312 C73.29833511 21.10760178 73.30736359 22.15075043 73.31666565 23.22550964 C73.33116683 25.43196748 73.34005455 27.63846831 73.34375 29.8449707 C73.35563332 33.20989023 73.40481117 36.5729681 73.45532227 39.9375 C73.46478834 42.08397545 73.47202249 44.23046213 73.47680664 46.37695312 C73.49633896 47.37821732 73.51587128 48.37948151 73.53599548 49.41108704 C73.50031516 54.97387759 72.88225903 58.6126132 69.48060608 63.08158875 C65.43703337 66.54527981 61.16290364 66.67816238 56.02001953 66.71044922 C55.34617722 66.71716644 54.6723349 66.72388367 53.97807312 66.73080444 C51.76142913 66.74972613 49.54508875 66.75370537 47.32836914 66.75585938 C45.78047056 66.76229049 44.23257318 66.76901909 42.68467712 66.77603149 C39.44421572 66.78798902 36.20386081 66.79171381 32.96337891 66.79052734 C28.81948363 66.79032404 24.67627326 66.81764438 20.53254032 66.85207176 C17.33683662 66.87435121 14.14129762 66.8783646 10.94552422 66.87730789 C9.4181526 66.87966158 7.89077629 66.88847208 6.36348152 66.90397263 C4.22377136 66.92365884 2.08553675 66.91778656 -0.05419922 66.90576172 C-1.26933701 66.90861176 -2.48447479 66.91146179 -3.73643494 66.91439819 C-9.1678218 66.1115852 -12.18479154 63.61738241 -15.42138672 59.29663086 C-17.72625955 54.80122264 -17.67550849 50.35580602 -17.64819336 45.39257812 C-17.65439194 44.44483017 -17.66059052 43.49708221 -17.66697693 42.52061462 C-17.67405227 40.52457705 -17.67094121 38.52848017 -17.65820312 36.5324707 C-17.64434217 33.49449008 -17.67843675 30.45959583 -17.71655273 27.421875 C-17.71750413 25.47460863 -17.71564401 23.52733844 -17.71069336 21.58007812 C-17.72395157 20.6808815 -17.73720978 19.78168488 -17.75086975 18.85523987 C-17.66067094 12.68240157 -16.35001744 8.03251315 -12.08178711 3.41992188 C-8.05415855 0.35812301 -5.00169765 0.03369164 0 0 Z " fill="#2A7777" transform="translate(665.081787109375,429.580078125)"/>
<path d="M0 0 C-0.11512153 1.72985242 -0.24255677 3.45888751 -0.375 5.1875 C-0.44460938 6.15042969 -0.51421875 7.11335938 -0.5859375 8.10546875 C-1.00215853 11.01508938 -1.79874096 13.32890774 -3 16 C-10.625 15.125 -10.625 15.125 -14 14 C-25.44311522 13.07182148 -34.9084049 14.01671696 -44.6015625 20.828125 C-47.20911447 23.18936098 -48.85599627 25.50374222 -50.6875 28.5 C-51.26886719 29.4384375 -51.85023438 30.376875 -52.44921875 31.34375 C-53.71710038 33.51543642 -54.87538934 35.75077867 -56 38 C-42.14 38 -28.28 38 -14 38 C-15 46 -15 46 -17 52 C-31.19 52 -45.38 52 -60 52 C-60 55.96 -60 59.92 -60 64 C-46.14 64 -32.28 64 -18 64 C-19 72 -19 72 -20 76 C-31.88 76 -43.76 76 -56 76 C-51.56465018 87.08837455 -47.66229333 93.64255309 -37.078125 99.125 C-26.99762493 103.36942108 -15.50526724 101.43291588 -5.609375 97.77734375 C-3 97 -3 97 0 98 C0.8320582 103.72040011 1.12036664 109.22240116 1 115 C-0.58199631 115.64910154 -2.16565724 116.29414694 -3.75 116.9375 C-4.63171875 117.29714844 -5.5134375 117.65679688 -6.421875 118.02734375 C-16.63330654 121.87983838 -31.99916705 121.98149743 -42.25 118.375 C-43.85500404 117.62824529 -45.4397804 116.83629861 -47 116 C-47.90363281 115.5875 -48.80726563 115.175 -49.73828125 114.75 C-61.44196702 109.05193998 -69.58365462 99.7504604 -75 88 C-76.24907031 84.33754741 -77.1532866 80.78530694 -78 77 C-83.28 77 -88.56 77 -94 77 C-93.01 72.71 -92.02 68.42 -91 64 C-87.7 64 -84.4 64 -81 64 C-81 60.04 -81 56.08 -81 52 C-85.29 52 -89.58 52 -94 52 C-93.34 47.71 -92.68 43.42 -92 39 C-87.38 39 -82.76 39 -78 39 C-77.67 37.02 -77.34 35.04 -77 33 C-71.36549201 18.72851263 -61.20715845 6.29485327 -47.078125 -0.1953125 C-43.12836687 -1.72473012 -39.08962252 -2.90804297 -35 -4 C-34.39671875 -4.18691406 -33.7934375 -4.37382812 -33.171875 -4.56640625 C-22.79406252 -6.63823572 -8.89280014 -5.92853343 0 0 Z " fill="#F8FAFA" transform="translate(585,412)"/>
<path d="M0 0 C2.99534742 -0.05251354 5.9907566 -0.08877383 8.98637676 -0.12169838 C10.40236341 -0.14089175 11.81827464 -0.16708063 13.23399258 -0.2006855 C15.17568603 -0.24591688 17.11795129 -0.26420975 19.06009769 -0.28114128 C20.71033688 -0.30898201 20.71033688 -0.30898201 22.39391422 -0.33738518 C25.11161137 0.12266731 25.11161137 0.12266731 26.96932316 1.9342823 C28.62421126 5.10470137 28.43514863 7.76199451 28.36161137 11.31016731 C28.34614262 12.561847 28.33067387 13.81352669 28.31473637 15.10313606 C28.11161137 18.12266731 28.11161137 18.12266731 27.11161137 19.12266731 C24.84151108 19.22264231 22.56823777 19.2506687 20.29593754 19.25206184 C19.57952595 19.25381416 18.86311436 19.25556648 18.12499332 19.2573719 C15.71816513 19.2618204 13.31140929 19.25882664 10.90458012 19.25547981 C9.19212168 19.25615569 7.47966335 19.25712806 5.76720524 19.25837898 C2.13094028 19.25986279 -1.50530033 19.25769304 -5.14156246 19.25303841 C-9.62845955 19.24755452 -14.11529453 19.2505801 -18.60218906 19.25647545 C-38.15553822 19.27822859 -57.69519572 19.10285442 -77.24385738 18.67735481 C-103.21710677 18.11497549 -129.19180079 17.86553528 -155.16963863 17.62266731 C-157.37000384 17.60192877 -159.5703689 17.58117551 -161.77073383 17.56040764 C-179.96620057 17.38904992 -198.16171765 17.22320824 -216.3572607 17.06016731 C-228.91290494 16.94763366 -241.46852907 16.83343058 -254.02411127 16.71415138 C-259.3853124 16.66336706 -264.74651769 16.61398428 -270.10776424 16.56822395 C-308.15790229 16.24251761 -308.15790229 16.24251761 -325.64424801 15.65391731 C-326.79907932 15.61657478 -327.95391064 15.57923225 -329.14373684 15.54075813 C-330.16915333 15.50140144 -331.19456982 15.46204475 -332.25105953 15.42149544 C-333.13185932 15.3880201 -334.01265911 15.35454475 -334.9201498 15.32005501 C-336.88838863 15.12266731 -336.88838863 15.12266731 -337.88838863 14.12266731 C-338.12567677 7.59724358 -338.12567677 7.59724358 -336.88838863 5.12266731 C-314.36892396 4.51371054 -291.85325377 4.04629614 -269.32588863 3.87657356 C-268.27561111 3.86860126 -267.2253336 3.86062897 -266.14322948 3.85241508 C-260.66956025 3.81146203 -255.19587843 3.77251498 -249.7221899 3.73423958 C-210.97934797 3.46010521 -172.24808414 2.96291295 -133.51338863 2.12266731 C-131.4638589 2.078332 -129.41432887 2.03401027 -127.36479855 1.98970222 C-126.3555095 1.96787848 -125.34622046 1.94605474 -124.30634689 1.92356968 C-119.27771528 1.81495373 -114.24907337 1.70682868 -109.22041988 1.59922981 C-108.24160791 1.57824793 -107.26279594 1.55726604 -106.25432301 1.53564835 C-85.7379671 1.09831937 -65.22067938 0.78413261 -44.70130825 0.52891731 C-42.264494 0.49846225 -39.82769197 0.46715938 -37.39089108 0.43565559 C-29.3419256 0.33267225 -21.29313058 0.24492847 -13.2437315 0.18404961 C-8.82850664 0.14800613 -4.41459505 0.08235906 0 0 Z " fill="#F8FBFA" transform="translate(663.888388633728,277.87733268737793)"/>
<path d="M0 0 C7.59 0 15.18 0 23 0 C26.69741581 9.31464367 30.27912722 18.47698443 33.09375 28.09765625 C33.98565446 30.95405716 35.03846697 33.67571704 36.1875 36.4375 C37.64910072 39.95107349 38.59856392 43.18635727 39 47 C39.66 47 40.32 47 41 47 C41.21785156 45.82566406 41.43570313 44.65132812 41.66015625 43.44140625 C43.22976571 36.38575634 45.90642263 29.69060184 48.4375 22.9375 C48.93347517 21.60110895 49.42892136 20.26452146 49.92382812 18.92773438 C52.26529371 12.61202672 54.63491352 6.30689729 57 0 C64.59 0 72.18 0 80 0 C80 23.76 80 47.52 80 72 C75.05 72 70.1 72 65 72 C65 55.5 65 39 65 22 C64.34 22 63.68 22 63 22 C62.773125 23.175625 62.54625 24.35125 62.3125 25.5625 C60.51019517 33.68574536 57.81692666 41.77019474 54.53515625 49.41015625 C52.79103201 53.48865542 51.32164191 57.62160019 49.875 61.8125 C47.12190083 69.75619835 47.12190083 69.75619835 46 72 C42.04 72 38.08 72 34 72 C33.48614746 70.57905029 33.48614746 70.57905029 32.96191406 69.12939453 C31.67389222 65.56904745 30.38364621 62.00950962 29.09277344 58.45019531 C28.53749172 56.918184 27.98278991 55.38596235 27.42871094 53.85351562 C26.62592559 51.63353882 25.82142541 49.41419661 25.015625 47.1953125 C24.75438843 46.47587463 24.49315186 45.75643677 24.22399902 45.01519775 C22.5093117 40.32086542 20.70333971 35.67615922 18.75292969 31.07373047 C18 29 18 29 17 24 C16.67 39.84 16.34 55.68 16 72 C10.72 72 5.44 72 0 72 C0 48.24 0 24.48 0 0 Z " fill="#FAFAFA" transform="translate(264,687)"/>
<path d="M0 0 C5.94 0 11.88 0 18 0 C20.24924638 7.87236233 20.24924638 7.87236233 20.94555664 11.35888672 C21.18073753 12.52446609 21.18073753 12.52446609 21.42066956 13.71359253 C21.58220016 14.52740387 21.74373077 15.34121521 21.91015625 16.1796875 C22.2636296 17.92969604 22.61714646 19.67969579 22.97070312 21.4296875 C23.52046872 24.16838495 24.06896234 26.90733166 24.61645508 29.64648438 C25.14867492 32.30403703 25.68544151 34.9606408 26.22265625 37.6171875 C26.38621109 38.44314423 26.54976593 39.26910095 26.71827698 40.12008667 C27.19535513 43.86958756 27.19535513 43.86958756 29 47 C29.56296498 44.89595769 30.12532853 42.79175446 30.6875 40.6875 C30.86539062 40.02250488 31.04328125 39.35750977 31.2265625 38.67236328 C32.24388418 34.86179198 33.24944565 31.04853752 34.23828125 27.23046875 C36.61446485 18.07414296 39.13539196 9.0182105 42 0 C47.28 0 52.56 0 58 0 C60.31147827 5.92616387 62.21563017 11.87836218 63.9375 18 C64.19547363 18.91193115 64.45344727 19.8238623 64.71923828 20.76342773 C71 43.13693144 71 43.13693144 71 49 C71.66 49 72.32 49 73 49 C73.03883301 48.35603271 73.07766602 47.71206543 73.11767578 47.04858398 C73.67479743 39.51535956 75.10327211 32.39572493 76.875 25.0625 C77.13152344 23.97259766 77.38804687 22.88269531 77.65234375 21.75976562 C79.3713913 14.49052688 81.17678609 7.24372712 83 0 C88.61 0 94.22 0 100 0 C98.71657479 5.88744124 97.3402149 11.73392168 95.828125 17.56640625 C95.52335739 18.74999222 95.52335739 18.74999222 95.21243286 19.95748901 C94.78112341 21.6322057 94.34919637 23.30676345 93.91668701 24.98117065 C92.79273916 29.3329572 91.67360875 33.68598125 90.5546875 38.0390625 C90.33434845 38.89602219 90.1140094 39.75298187 89.88699341 40.63591003 C87.20519357 51.0774239 84.59230694 61.53593174 82 72 C76.06 72 70.12 72 64 72 C56.75627123 48.58191795 56.75627123 48.58191795 54.6171875 39.58984375 C53.9167108 36.65050164 53.15587535 33.73148643 52.375 30.8125 C52.13523437 29.91144531 51.89546875 29.01039063 51.6484375 28.08203125 C51.18690683 26.03195392 51.18690683 26.03195392 50 25 C49.80889648 25.69448242 49.61779297 26.38896484 49.42089844 27.10449219 C48.53388631 30.32057827 47.64196529 33.53528429 46.75 36.75 C46.44964844 37.84183594 46.14929688 38.93367187 45.83984375 40.05859375 C44.03749864 46.53936659 42.07716929 52.92605466 39.86523438 59.27929688 C38.53426805 63.46447992 37.76266953 67.678206 37 72 C31.06 72 25.12 72 19 72 C16.61773751 65.17838782 14.76057752 58.3327437 13.0625 51.3125 C11.45863078 44.77798016 9.84541665 38.26529128 7.9375 31.8125 C5.44768708 23.34922836 3.50423564 14.75009795 1.5090332 6.15966797 C1.02406694 4.10210846 0.51270582 2.05082329 0 0 Z " fill="#F8F9F9" transform="translate(448,687)"/>
<path d="M0 0 C0.8031665 -0.01458252 1.60633301 -0.02916504 2.43383789 -0.04418945 C9.16322386 0.06958744 14.4157025 1.89620809 19.49609375 6.37890625 C20.17865234 7.24322266 20.17865234 7.24322266 20.875 8.125 C21.34808594 8.70378906 21.82117188 9.28257812 22.30859375 9.87890625 C24.2465206 12.76903245 24.56141485 15.29017443 24.55102539 18.66674805 C24.55094986 19.48737228 24.55087433 20.30799652 24.55079651 21.15348816 C24.54563522 22.03482925 24.54047394 22.91617035 24.53515625 23.82421875 C24.5337413 24.73001175 24.53232635 25.63580475 24.53086853 26.56904602 C24.52527001 29.46273091 24.51271781 32.35633849 24.5 35.25 C24.49498481 37.21158742 24.49042193 39.17317606 24.48632812 41.13476562 C24.47530107 45.94404021 24.45803747 50.753257 24.4375 55.5625 C19.1575 55.5625 13.8775 55.5625 8.4375 55.5625 C7.9425 52.5925 7.9425 52.5925 7.4375 49.5625 C6.550625 50.34625 5.66375 51.13 4.75 51.9375 C-0.30544717 56.07804026 -4.5705869 57.03517834 -11.06640625 56.87109375 C-16.47396068 56.20255416 -20.03523258 53.5313453 -23.5 49.4375 C-26.35265951 45.04516002 -26.4669483 40.6290854 -25.5625 35.5625 C-22.99425054 30.42600108 -19.65964315 26.70731859 -14.1953125 24.6875 C-8.41196514 22.90272812 -2.83485423 21.40918128 3.25 21.5 C4.04019531 21.50902344 4.83039062 21.51804687 5.64453125 21.52734375 C6.53205078 21.54474609 6.53205078 21.54474609 7.4375 21.5625 C6.83888258 19.21078869 6.16825648 16.8765622 5.4375 14.5625 C2.33701072 13.01225536 -0.14144218 13.27257985 -3.5625 13.5625 C-4.30242188 14.22378906 -5.04234375 14.88507812 -5.8046875 15.56640625 C-9.34397431 18.128128 -12.18832094 18.02083236 -16.375 17.8125 C-17.06787109 17.79445313 -17.76074219 17.77640625 -18.47460938 17.7578125 C-20.17117664 17.71101064 -21.86702476 17.63927624 -23.5625 17.5625 C-22.78681946 11.19296941 -21.78649268 8.42389204 -16.96484375 4.14453125 C-11.62147524 0.3521206 -6.34950601 0.06669521 0 0 Z " fill="#F5F6F7" transform="translate(578.5625,703.4375)"/>
<path d="M0 0 C6.94749386 4.36427696 10.51196954 8.30470879 12.99609375 16.25390625 C12.99609375 20.87390625 12.99609375 25.49390625 12.99609375 30.25390625 C0.78609375 30.25390625 -11.42390625 30.25390625 -24.00390625 30.25390625 C-21.85244232 37.7242563 -21.85244232 37.7242563 -18.87890625 40.31640625 C-14.75615925 41.66078027 -11.1643709 41.45388846 -7.00390625 40.25390625 C-6.34390625 39.57328125 -5.68390625 38.89265625 -5.00390625 38.19140625 C-2.59935009 35.86199247 -1.8780459 35.96299522 1.37109375 35.94140625 C4.96899342 36.10197367 8.46419155 36.52941349 11.99609375 37.25390625 C11.10013314 43.77513855 7.25238432 47.59101715 2.28125 51.65625 C-4.63088766 55.90638278 -13.75430782 55.18568917 -21.46875 53.81640625 C-28.36236319 51.63229118 -33.93386288 46.2770459 -38.00390625 40.44140625 C-41.88852857 32.75143961 -41.36123985 22.25985219 -39.15234375 14.11328125 C-35.89744664 6.894938 -30.46447566 2.35738962 -23.81640625 -1.68359375 C-15.77298356 -3.92520335 -7.4873312 -3.94286982 0 0 Z " fill="#F7F8F8" transform="translate(714.00390625,705.74609375)"/>
<path d="M0 0 C5.94 0 11.88 0 18 0 C21.18143677 9.47200493 24.34356472 18.93253659 27.23828125 28.49609375 C27.79892504 30.33903053 28.39084177 32.17252532 29 34 C31.84743127 27.3825061 34.09921005 20.66110779 36.20263672 13.78125 C37.63586649 9.10898806 39.20180738 4.5428024 41 0 C46.61 0 52.22 0 58 0 C55.46024778 9.15186576 51.94131051 17.83051031 48.33935547 26.6003418 C44.9646811 34.83653112 41.88582843 43.07633349 39.20800781 51.56738281 C35.74684798 61.40244894 31.15001555 69.56943481 22.171875 75.1328125 C19.33425907 76.26581742 16.98454011 76.22903338 13.9375 76.1875 C12.89464844 76.18105469 11.85179687 76.17460938 10.77734375 76.16796875 C8 76 8 76 5 75 C5 70.71 5 66.42 5 62 C6.7325 61.938125 8.465 61.87625 10.25 61.8125 C14.16074828 61.44964707 15.61549975 61.30585247 18.75 58.8125 C20.50393802 54.86613946 19.72990267 52.09405652 18.32373047 48.05981445 C17.4349162 45.77584234 16.50479949 43.51242811 15.5625 41.25 C14.84213018 39.48503526 14.12347134 37.71937151 13.40625 35.953125 C13.02082031 35.00501953 12.63539063 34.05691406 12.23828125 33.08007812 C9.95797746 27.40809221 7.75993085 21.7044939 5.5625 16 C5.12558838 14.87239258 4.68867676 13.74478516 4.23852539 12.58300781 C3.83110107 11.52436523 3.42367676 10.46572266 3.00390625 9.375 C2.64111572 8.43398438 2.2783252 7.49296875 1.90454102 6.5234375 C1 4 1 4 0 0 Z " fill="#F7F8F8" transform="translate(355,705)"/>
<path d="M0 0 C5.61 0 11.22 0 17 0 C17 4.62 17 9.24 17 14 C20.63 14 24.26 14 28 14 C28 18.29 28 22.58 28 27 C24.04 27 20.08 27 16 27 C16.14047613 31.27107201 16.28713815 35.54177451 16.4375 39.8125 C16.47681641 41.02744141 16.51613281 42.24238281 16.55664062 43.49414062 C16.59853516 44.65751953 16.64042969 45.82089844 16.68359375 47.01953125 C16.72025146 48.09307861 16.75690918 49.16662598 16.79467773 50.27270508 C16.89541847 53.09311553 16.89541847 53.09311553 18 56 C20.97 56 23.94 56 27 56 C28.10228696 60.40914783 28.07654536 64.48382401 28 69 C21.75033633 70.83462681 13.87414404 71.47256014 8 68.3125 C4.08546043 65.29504242 1.5717805 62.7153415 0 58 C-0.08397157 55.64319787 -0.10728187 53.28405919 -0.09765625 50.92578125 C-0.0962413 50.2419487 -0.09482635 49.55811615 -0.09336853 48.8535614 C-0.08777876 46.67316278 -0.07522822 44.49286749 -0.0625 42.3125 C-0.05748367 40.83268378 -0.052921 39.35286594 -0.04882812 37.87304688 C-0.03781271 34.24866443 -0.02055512 30.6243423 0 27 C-2.64 27 -5.28 27 -8 27 C-8 22.71 -8 18.42 -8 14 C-5.36 14 -2.72 14 0 14 C0 9.38 0 4.76 0 0 Z " fill="#F5F7F7" transform="translate(741,690)"/>
<path d="M0 0 C4.88207207 2.8334364 8.13374797 7.51749594 10.625 12.5 C11.31985935 19.90423895 11.25991839 26.42852796 6.625 32.5 C2.41904636 36.96508822 -1.78965412 39.99087017 -7.98828125 40.87109375 C-14.75581547 41.0375888 -19.2906966 40.12314209 -24.375 35.5 C-29.81330717 29.30222849 -30.85817212 23.93206222 -30.77734375 15.8671875 C-30.03973079 9.69415473 -27.02702953 6.00469456 -22.6171875 1.83984375 C-16.09705265 -3.05707761 -7.38330578 -3.15417086 0 0 Z " fill="#F5F8F8" transform="translate(690.375,443.5)"/>
<path d="M0 0 C5.28 0 10.56 0 16 0 C16 25.41 16 50.82 16 77 C10.72 77 5.44 77 0 77 C0 51.59 0 26.18 0 0 Z " fill="#FAFBFB" transform="translate(647,682)"/>
<path d="M0 0 C5.28 0 10.56 0 16 0 C16 25.41 16 50.82 16 77 C10.72 77 5.44 77 0 77 C0 51.59 0 26.18 0 0 Z " fill="#F9FAFA" transform="translate(616,682)"/>
<path d="M0 0 C6.80369515 2.26789838 6.80369515 2.26789838 10.25 5.375 C10.91515625 5.96023438 11.5803125 6.54546875 12.265625 7.1484375 C15.26620261 10.35175684 15.95746414 12.47255539 16.3125 16.875 C16.15104261 21.71872162 14.79265267 25.0670134 11.453125 28.66796875 C7.36724759 32.47362006 5.99519071 33.00080155 0 34 C0 22.78 0 11.56 0 0 Z " fill="#2E6070" transform="translate(437,478)"/>
<path d="M0 0 C0 10.56 0 21.12 0 32 C-7.94594595 29.72972973 -7.94594595 29.72972973 -12 25 C-12.598125 24.4225 -13.19625 23.845 -13.8125 23.25 C-15.73886037 19.60005404 -15.50579543 16.03231354 -15 12 C-13.17465409 6.72677847 -10.39280797 4.20308914 -6 1 C-3 0 -3 0 0 0 Z " fill="#3B6C79" transform="translate(425,420)"/>
<path d="M0 0 C3.70219508 2.54525912 4.7681855 4.18864925 6 8.5 C6 13.31804413 4.50968717 15.37848415 1.3125 18.8125 C-2.08364801 20.5564679 -5.3104216 20.68081506 -9 20 C-11.8100346 18.20636089 -13.50940468 16.98119065 -15 14 C-15.5811138 6.91041162 -15.5811138 6.91041162 -13.125 3.0625 C-9.22556807 -0.72224276 -5.23389564 -0.78644028 0 0 Z " fill="#2C7678" transform="translate(685,453)"/>
<path d="M0 0 C0.35465783 3.07370117 0.49043943 5.93607196 0 9 C-3.30189747 12.47122555 -6.10987357 13.23257286 -10.75 13.375 C-14.69204152 13.30795848 -14.69204152 13.30795848 -17 11 C-17.4375 8.125 -17.4375 8.125 -17 5 C-11.75861651 -0.38697748 -7.07688718 -0.11794812 0 0 Z " fill="#37586D" transform="translate(586,735)"/>
<path d="M0 0 C2.65524357 1.39629188 3.90959854 2.70565694 6 5 C6.33 6.65 6.66 8.3 7 10 C-0.26 10 -7.52 10 -15 10 C-12.37577498 2.12732494 -8.75929864 -1.9845286 0 0 Z " fill="#325C6E" transform="translate(705,716)"/>
<path d="M0 0 C0 0.33 0 0.66 0 1 C-1.5159375 1.061875 -1.5159375 1.061875 -3.0625 1.125 C-7.85902082 1.76127317 -10.67514558 4.69535746 -14 8 C-13.12269491 5.29497597 -12.28331029 3.31599994 -10.375 1.1875 C-6.84016181 -0.5799191 -3.92581331 -0.19629067 0 0 Z " fill="#4F7483" transform="translate(705,716)"/>
<path d="M0 0 C0.66 0.33 1.32 0.66 2 1 C-0.64 3.64 -3.28 6.28 -6 9 C-6 6 -6 6 -3.5625 3.375 C-2.716875 2.59125 -1.87125 1.8075 -1 1 C-0.67 0.67 -0.34 0.34 0 0 Z " fill="#DFE5E6" transform="translate(563,707)"/>
</svg>
